<svg xmlns="http://www.w3.org/2000/svg" width="36" height="30" viewBox="0 0 36 30">
    <g data-name="Group 11811">
        <g data-name="Group 11810">
            <path data-name="Rectangle 3142" style="fill:none" d="M0 0h36v30H0z"/>
            <g data-name="Group 11809">
                <path data-name="Path 64" d="M40.463 45.028a4.235 4.235 0 0 1-8.457 0h-6.593A1.41 1.41 0 0 1 24 43.617V42.2a2.825 2.825 0 0 1 2.824-2.823V33.73a9.413 9.413 0 0 1 6.117-8.818v-.124a3.294 3.294 0 0 1 6.588 0v.124a9.414 9.414 0 0 1 6.117 8.818v5.65a2.827 2.827 0 0 1 2.823 2.82v1.413a1.414 1.414 0 0 1-1.413 1.41zm-1.887 0h-4.683a2.353 2.353 0 0 0 4.682 0zm8.011-1.882V42.2a.944.944 0 0 0-.942-.941 1.88 1.88 0 0 1-1.881-1.883v-5.642a7.531 7.531 0 0 0-5.438-7.234l-.68-.2v-1.508a1.412 1.412 0 0 0-2.823 0V26.3l-.68.2a7.53 7.53 0 0 0-5.437 7.234v5.646a1.883 1.883 0 0 1-1.881 1.883.943.943 0 0 0-.942.941v.941z" transform="translate(-18 -20.5)" style="fill:#57708d"/>
            </g>
        </g>
    </g>
</svg>
