<svg xmlns="http://www.w3.org/2000/svg" width="30" height="31.667" viewBox="0 0 30 31.667">
    <defs>
        <style>
            .cls-3{fill:#1c256b}
        </style>
    </defs>
    <g id="Group_11802" data-name="Group 11802" transform="translate(-154 -86)">
        <g id="Group_11801" data-name="Group 11801">
            <path id="Rectangle_3136" data-name="Rectangle 3136" transform="translate(154 86)" style="fill:none" d="M0 0h30v31.667H0z"/>
            <g id="Group" transform="translate(148.243 75.455)">
                <g id="Group-2" data-name="Group" transform="translate(18.117 22.464)">
                    <path id="Path_6" data-name="Path 6" d="M45.453 38a.5.5 0 0 0 0-1h-4.984a.5.5 0 1 0 0 1H41.9a1.528 1.528 0 0 1 1.561 1h-2.99a.5.5 0 1 0 0 1h2.99a1.845 1.845 0 0 1-1.561 1.319h-1.431a.465.465 0 0 0-.332.831l3.555 3.35a.465.465 0 0 0 .332.133.532.532 0 0 0 .365-.166.432.432 0 0 0 0-.664l-2.658-2.492h.169a2.691 2.691 0 0 0 2.591-2.326h.963a.5.5 0 1 0 0-1h-.963a2.923 2.923 0 0 0-.532-1z" transform="translate(-39.956 -37)" style="fill:#e13b56"/>
                </g>
                <g id="Group-3" data-name="Group" transform="translate(7.757 15.545)">
                    <path id="Path_8" data-name="Path 8" class="cls-3" d="M14.615 25.042a.565.565 0 0 0-.432-.3H12.25a9.246 9.246 0 0 1 9.242-7.663 10.008 10.008 0 0 1 7.563 3.81.781.781 0 0 0 .677.4c.261-.039.381-.029.548-.326a.874.874 0 0 0-.217-.907 10.887 10.887 0 0 0-8.571-4.514 10.867 10.867 0 0 0-10.7 9.2H8.269a.565.565 0 0 0-.465.3.664.664 0 0 0 .033.565l2.957 4.286a.565.565 0 0 0 .432.233.5.5 0 0 0 .4-.233l2.957-4.286a.664.664 0 0 0 .032-.565z" transform="translate(-7.757 -15.545)"/>
                </g>
                <g id="Group-4" data-name="Group" transform="translate(11.907 22.835)">
                    <path id="Path_8-2" data-name="Path 8" class="cls-3" d="M23.481 20.628a.565.565 0 0 0 .432.3h1.933a9.246 9.246 0 0 1-9.246 7.663 10.008 10.008 0 0 1-7.563-3.81.781.781 0 0 0-.677-.4c-.261.039-.381.029-.548.326a.874.874 0 0 0 .217.907 10.887 10.887 0 0 0 8.571 4.511 10.867 10.867 0 0 0 10.7-9.2h2.525a.565.565 0 0 0 .465-.3.664.664 0 0 0-.033-.565L27.3 15.778a.565.565 0 0 0-.432-.233.5.5 0 0 0-.4.233l-2.957 4.286a.664.664 0 0 0-.03.564z" transform="translate(-7.757 -15.545)"/>
                </g>
            </g>
        </g>
    </g>
</svg>
